<?xml version="1.0" encoding="UTF-8" standalone="no"?>
<svg
   xmlns:dc="http://purl.org/dc/elements/1.1/"
   xmlns:cc="http://creativecommons.org/ns#"
   xmlns:rdf="http://www.w3.org/1999/02/22-rdf-syntax-ns#"
   xmlns:svg="http://www.w3.org/2000/svg"
   xmlns="http://www.w3.org/2000/svg"
   viewBox="0 0 6.3949077 6.3949079"
   version="1.1"
   id="svg8">
  <defs
     id="defs2" />
  <metadata
     id="metadata5">
    <rdf:RDF>
      <cc:Work
         rdf:about="">
        <dc:format>image/svg+xml</dc:format>
        <dc:type
           rdf:resource="http://purl.org/dc/dcmitype/StillImage" />
        <dc:title></dc:title>
      </cc:Work>
    </rdf:RDF>
  </metadata>
  <g
     id="layer1"
     transform="translate(-8.3010294,0.03272684)">
    <text
       xml:space="preserve"
       style="font-style:normal;font-weight:normal;font-size:10.5833px;line-height:1.25;font-family:sans-serif;fill:#000000;fill-opacity:1;stroke:none;stroke-width:0.264583"
       x="0.3674956"
       y="0.73499119"
       id="text835"><tspan
         id="tspan833"
         x="0.3674956"
         y="0.73499119"
         style="stroke-width:0.264583" /></text>
    <path
       style="fill:#000000;fill-opacity:1;stroke:#000000;stroke-width:0.1;stroke-linecap:butt;stroke-linejoin:miter;stroke-miterlimit:4;stroke-dasharray:none;stroke-opacity:1"
       d="M 10.661133,5.160239 C 10.524025,5.158129 10.428824,5.089592 10.431868,4.9197558 l -0.01896,-2.5545269 1.223895,0.6528012 c 0.06473,0.033409 0.14899,0.023237 0.191757,-0.019888 0.04277,-0.043125 0.05178,-0.1270017 0.01628,-0.1708506 L 10.215325,0.70849394 c -0.02844,-0.0305526 -0.07043,-0.0777105 -0.104749,-0.0769956 -0.03432,7.1491e-4 -0.07425,0.0474758 -0.103211,0.0764395 L 8.3763149,2.8212831 c -0.038388,0.044294 -0.031169,0.1479462 0.0099,0.1894413 0.041065,0.041495 0.1170642,0.054204 0.1879347,0.018769 l 1.2271543,-0.6609785 0.00778,2.5676913 c 0.00435,0.5183807 0.3894001,0.8150387 0.8520181,0.8232807 l 3.980287,-3.373e-4 0.0042,-0.6082756 z"
       id="path841" />
  </g>
</svg>
